<svg width="247" height="48" viewBox="0 0 247 48" fill="none" xmlns="http://www.w3.org/2000/svg">
<path fill-rule="evenodd" clip-rule="evenodd" d="M43.1111 3.77783H9.33333L0 28.2223H10.5293L15.1111 16.2223H38.3596L43.1111 3.77783Z" fill="white"/>
<path d="M18.2222 19.7778H52L42.6667 44.2223H8.88889L18.2222 19.7778Z" fill="#15BFFD"/>
<path d="M63.632 35V14.392H68.048L76.816 26.712V14.392H82V35H77.552L68.784 22.712V35H63.632ZM93.385 35.32C90.7397 35.32 88.617 34.6693 87.017 33.368C85.417 32.0453 84.617 30.0613 84.617 27.416C84.617 25.0053 85.2783 23.0853 86.601 21.656C87.9237 20.2267 89.9077 19.512 92.553 19.512C94.9637 19.512 96.8303 20.1307 98.153 21.368C99.4757 22.6053 100.137 24.2693 100.137 26.36V29.08H89.385C89.6197 30.0827 90.1637 30.7867 91.017 31.192C91.8917 31.576 93.0757 31.768 94.569 31.768C95.401 31.768 96.2437 31.6933 97.097 31.544C97.9717 31.3947 98.697 31.2027 99.273 30.968V34.328C98.5477 34.6693 97.6837 34.9147 96.681 35.064C95.6783 35.2347 94.5797 35.32 93.385 35.32ZM89.385 26.104H95.657V25.432C95.657 24.6853 95.433 24.0987 94.985 23.672C94.537 23.224 93.7797 23 92.713 23C91.4757 23 90.6117 23.256 90.121 23.768C89.6303 24.2587 89.385 25.0373 89.385 26.104ZM100.52 35L106.344 27.288L100.743 19.832H106.344L109.16 23.64L111.976 19.832H117.576L111.976 27.288L117.8 35H112.168L109.16 31L106.152 35H100.52ZM125.685 35.32C123.807 35.32 122.421 34.84 121.525 33.88C120.65 32.92 120.213 31.5973 120.213 29.912V23.736H118.165V19.832H120.213V16.664L125.365 15.288V19.832H129.045L128.821 23.736H125.365V29.56C125.365 30.2853 125.546 30.7973 125.909 31.096C126.271 31.3733 126.815 31.512 127.541 31.512C128.159 31.512 128.789 31.4053 129.429 31.192V34.68C128.426 35.1067 127.178 35.32 125.685 35.32ZM130.773 35V31.224H134.901V35H130.773ZM139.49 17.432V13.56H145.09V17.432H139.49ZM139.554 42.488C138.04 42.488 136.781 42.2747 135.778 41.848V38.36C136.418 38.5733 137.058 38.68 137.698 38.68C139.192 38.68 139.938 38.04 139.938 36.76V23.64H137.698L138.146 19.832H145.09V37.208C145.09 38.7653 144.642 40.0347 143.746 41.016C142.85 41.9973 141.453 42.488 139.554 42.488ZM153.983 35.32C152.767 35.32 151.615 35.2347 150.527 35.064C149.439 34.8933 148.575 34.68 147.935 34.424V30.488C148.681 30.808 149.545 31.0533 150.527 31.224C151.508 31.3947 152.383 31.48 153.151 31.48C154.068 31.48 154.729 31.4373 155.135 31.352C155.561 31.2667 155.775 31.032 155.775 30.648C155.775 30.2213 155.433 29.9013 154.751 29.688C154.068 29.4747 153.129 29.1653 151.935 28.76C150.548 28.2693 149.492 27.704 148.767 27.064C148.063 26.4027 147.711 25.432 147.711 24.152C147.711 22.6587 148.265 21.5173 149.375 20.728C150.505 19.9173 152.297 19.512 154.751 19.512C155.711 19.512 156.66 19.5867 157.599 19.736C158.537 19.8853 159.305 20.056 159.903 20.248V24.12C159.305 23.8427 158.623 23.64 157.855 23.512C157.087 23.384 156.393 23.32 155.775 23.32C154.985 23.32 154.313 23.3733 153.759 23.48C153.225 23.5653 152.959 23.7893 152.959 24.152C152.959 24.5573 153.257 24.8453 153.855 25.016C154.452 25.1653 155.316 25.4213 156.447 25.784C157.641 26.1467 158.569 26.5413 159.231 26.968C159.892 27.3733 160.361 27.864 160.639 28.44C160.916 29.016 161.055 29.7413 161.055 30.616C161.055 32.1307 160.457 33.2933 159.263 34.104C158.068 34.9147 156.308 35.32 153.983 35.32Z" fill="white"/>
<path d="M177.098 35.32C175.733 35.32 174.453 35.2133 173.258 35C172.085 34.808 171.072 34.52 170.218 34.136V29.752C171.157 30.1573 172.192 30.488 173.322 30.744C174.474 31 175.562 31.128 176.586 31.128C177.866 31.128 178.816 31.0107 179.434 30.776C180.074 30.5413 180.394 30.0293 180.394 29.24C180.394 28.7067 180.234 28.28 179.914 27.96C179.616 27.64 179.114 27.3627 178.41 27.128C177.728 26.872 176.789 26.5733 175.594 26.232C174.186 25.8053 173.066 25.336 172.234 24.824C171.402 24.2907 170.805 23.6507 170.442 22.904C170.08 22.1573 169.898 21.24 169.898 20.152C169.898 18.1893 170.602 16.6853 172.01 15.64C173.418 14.5947 175.498 14.072 178.25 14.072C179.445 14.072 180.608 14.168 181.738 14.36C182.869 14.5307 183.786 14.7333 184.49 14.968V19.384C183.573 19.0213 182.645 18.7547 181.706 18.584C180.789 18.4133 179.893 18.328 179.018 18.328C177.866 18.328 176.928 18.4347 176.202 18.648C175.498 18.8613 175.146 19.352 175.146 20.12C175.146 20.568 175.274 20.9307 175.53 21.208C175.786 21.464 176.224 21.6987 176.842 21.912C177.482 22.1253 178.346 22.3813 179.434 22.68C181.12 23.128 182.41 23.672 183.306 24.312C184.202 24.9307 184.821 25.656 185.162 26.488C185.504 27.2987 185.674 28.216 185.674 29.24C185.674 31.0533 184.97 32.5253 183.562 33.656C182.154 34.7653 180 35.32 177.098 35.32ZM194.06 35.32C192.182 35.32 190.796 34.84 189.9 33.88C189.025 32.92 188.588 31.5973 188.588 29.912V23.736H186.54V19.832H188.588V16.664L193.74 15.288V19.832H197.42L197.196 23.736H193.74V29.56C193.74 30.2853 193.921 30.7973 194.284 31.096C194.646 31.3733 195.19 31.512 195.916 31.512C196.534 31.512 197.164 31.4053 197.804 31.192V34.68C196.801 35.1067 195.553 35.32 194.06 35.32ZM207.692 35.32C204.77 35.32 202.615 34.648 201.228 33.304C199.842 31.9387 199.148 29.976 199.148 27.416C199.148 24.8773 199.842 22.9253 201.228 21.56C202.636 20.1947 204.791 19.512 207.692 19.512C210.615 19.512 212.77 20.1947 214.156 21.56C215.564 22.9253 216.268 24.8773 216.268 27.416C216.268 29.976 215.575 31.9387 214.188 33.304C212.802 34.648 210.636 35.32 207.692 35.32ZM207.692 31.288C208.887 31.288 209.74 30.9893 210.252 30.392C210.764 29.7947 211.02 28.8027 211.02 27.416C211.02 26.0293 210.764 25.0373 210.252 24.44C209.74 23.8427 208.887 23.544 207.692 23.544C206.519 23.544 205.676 23.8427 205.164 24.44C204.652 25.0373 204.396 26.0293 204.396 27.416C204.396 28.8027 204.652 29.7947 205.164 30.392C205.676 30.9893 206.519 31.288 207.692 31.288ZM218.882 35V19.832H223.778L223.938 21.24C224.599 20.8347 225.421 20.472 226.402 20.152C227.383 19.8107 228.365 19.5973 229.346 19.512V23.384C228.791 23.448 228.173 23.5547 227.49 23.704C226.829 23.832 226.189 23.992 225.57 24.184C224.973 24.376 224.461 24.5787 224.034 24.792V35H218.882ZM238.791 35.32C236.146 35.32 234.023 34.6693 232.423 33.368C230.823 32.0453 230.023 30.0613 230.023 27.416C230.023 25.0053 230.685 23.0853 232.007 21.656C233.33 20.2267 235.314 19.512 237.959 19.512C240.37 19.512 242.237 20.1307 243.559 21.368C244.882 22.6053 245.543 24.2693 245.543 26.36V29.08H234.791C235.026 30.0827 235.57 30.7867 236.423 31.192C237.298 31.576 238.482 31.768 239.975 31.768C240.807 31.768 241.65 31.6933 242.503 31.544C243.378 31.3947 244.103 31.2027 244.679 30.968V34.328C243.954 34.6693 243.09 34.9147 242.087 35.064C241.085 35.2347 239.986 35.32 238.791 35.32ZM234.791 26.104H241.063V25.432C241.063 24.6853 240.839 24.0987 240.391 23.672C239.943 23.224 239.186 23 238.119 23C236.882 23 236.018 23.256 235.527 23.768C235.037 24.2587 234.791 25.0373 234.791 26.104Z" fill="#15BFFD"/>
</svg>
