<svg width="1348" height="5553" viewBox="0 0 1348 5553" fill="none" xmlns="http://www.w3.org/2000/svg">
<path d="M639.383 1.28991L638.59 7.89786L633.474 11.0174L639.345 12.2174L642.331 18.165L643.124 11.5571L648.24 8.43755L642.369 7.23749L639.383 1.28991Z" fill="#15BFFD"/>
<path d="M904.383 14.2899L903.59 20.8979L898.474 24.0174L904.345 25.2174L907.331 31.165L908.124 24.5571L913.24 21.4375L907.37 20.2375L904.383 14.2899Z" fill="#15BFFD"/>
<path d="M9.63486 400.767L8.6 409.39L1.92386 413.462L9.58491 415.028L13.4826 422.789L14.5174 414.166L21.1936 410.095L13.5325 408.529L9.63486 400.767Z" fill="white"/>
<path d="M242.548 54.6682L241.523 63.2142L234.907 67.2487L242.499 68.8007L246.361 76.4927L247.387 67.9467L254.003 63.9122L246.411 62.3602L242.548 54.6682Z" fill="#15BFFD"/>
<path d="M1322.51 10.0593L1320.63 25.7315L1308.5 33.1301L1322.42 35.9763L1329.5 50.0823L1331.38 34.4101L1343.52 27.0115L1329.59 24.1653L1322.51 10.0593Z" fill="#15BFFD"/>
<path d="M1224.02 759.589L1222.05 776.014L1209.33 783.768L1223.92 786.751L1231.35 801.535L1233.32 785.109L1246.03 777.355L1231.44 774.372L1224.02 759.589Z" fill="#15BFFD"/>
<path d="M1007.71 711.4L1006.93 717.933L1001.87 721.017L1007.67 722.203L1010.63 728.084L1011.41 721.551L1016.47 718.466L1010.67 717.28L1007.71 711.4Z" fill="#15BFFD"/>
<path d="M1276.59 1958.85L1275.45 1968.33L1268.11 1972.81L1276.54 1974.53L1280.82 1983.06L1281.96 1973.58L1289.3 1969.1L1280.88 1967.38L1276.59 1958.85Z" fill="#15BFFD"/>
<path d="M865.966 2118.96L865.241 2125L860.563 2127.85L865.931 2128.95L868.662 2134.39L869.387 2128.35L874.065 2125.49L868.697 2124.4L865.966 2118.96Z" fill="#15BFFD"/>
<path d="M110.079 3586.55L108.759 3597.55L100.242 3602.74L110.015 3604.74L114.988 3614.64L116.308 3603.64L124.825 3598.45L115.052 3596.45L110.079 3586.55Z" fill="#15BFFD"/>
<path d="M1325.29 4142.15L1323.97 4153.15L1315.45 4158.34L1325.23 4160.34L1330.2 4170.24L1331.52 4159.24L1340.04 4154.05L1330.26 4152.05L1325.29 4142.15Z" fill="#15BFFD"/>
<path d="M859.154 3639.7L861.397 3643.88L859.694 3647.79L863.605 3646.09L867.78 3648.33L865.537 3644.15L867.241 3640.24L863.329 3641.95L859.154 3639.7Z" fill="#15BFFD"/>
<path d="M946.966 5287.96L945.449 5300.6L935.665 5306.56L946.893 5308.86L952.604 5320.23L954.121 5307.59L963.905 5301.63L952.678 5299.33L946.966 5287.96Z" fill="#15BFFD"/>
<path d="M756.28 5441.29L755.629 5446.72L751.428 5449.28L756.248 5450.27L758.701 5455.15L759.352 5449.72L763.552 5447.16L758.732 5446.18L756.28 5441.29Z" fill="#15BFFD"/>
<path d="M236.062 5538.06L235.411 5543.48L231.21 5546.05L236.031 5547.03L238.483 5551.92L239.134 5546.49L243.334 5543.93L238.514 5542.94L236.062 5538.06Z" fill="#15BFFD"/>
<path d="M1168.75 2350.18L1168.03 2356.22L1163.35 2359.07L1168.72 2360.17L1171.45 2365.61L1172.17 2359.57L1176.85 2356.72L1171.48 2355.62L1168.75 2350.18Z" fill="#15BFFD"/>
<path d="M1082.26 2299.14L1080.94 2310.11L1072.45 2315.29L1082.2 2317.29L1087.16 2327.16L1088.47 2316.19L1096.97 2311.01L1087.22 2309.02L1082.26 2299.14Z" fill="#15BFFD"/>
<path d="M54.751 1942.18L54.0259 1948.22L49.348 1951.07L54.716 1952.17L57.4471 1957.61L58.1722 1951.57L62.8501 1948.72L57.4821 1947.62L54.751 1942.18Z" fill="#15BFFD"/>
<path d="M135.751 5111.18L135.026 5117.22L130.348 5120.07L135.716 5121.17L138.447 5126.61L139.172 5120.57L143.85 5117.72L138.482 5116.62L135.751 5111.18Z" fill="#15BFFD"/>
<path d="M247.581 1523.08L246.301 1533.75L238.041 1538.79L247.52 1540.73L252.342 1550.33L253.622 1539.66L261.882 1534.62L252.404 1532.69L247.581 1523.08Z" fill="#15BFFD"/>
<path d="M875.548 563.668L874.94 568.74L871.013 571.134L875.519 572.055L877.811 576.619L878.42 571.548L882.346 569.154L877.84 568.233L875.548 563.668Z" fill="#15BFFD"/>
</svg>
